Coordinates
version=1
nRows=4
nColumns=107
inDegrees=yes

Units are S.I. units (second, meters, Newtons, ...)
If the header above contains a line with 'inDegrees', this indicates whether rotational values are in degrees (yes) or radians (no).

endheader
time	sternoclavicular_r2	sternoclavicular_r3	unrotscap_r3	unrotscap_r2	acromioclavicular_r2	acromioclavicular_r3	acromioclavicular_r1	unrothum_r1	unrothum_r3	unrothum_r2	elv_angle	shoulder_elv	shoulder1_r2	shoulder_rot	elbow_flexion	pro_sup	deviation	flexion	proximal_distal_r1	proximal_distal_r3	cmc_flexion	cmc_abduction	mp_flexion	ip_flexion	mcp2_flexion	mcp2_abduction	pm2_flexion	md2_flexion	mcp3_flexion	mcp3_abduction	pm3_flexion	md3_flexion	mcp4_flexion	mcp4_abduction	pm4_flexion	md4_flexion	mcp5_flexion	mcp5_abduction	pm5_flexion	md5_flexion	bicpt_tx	bicpt_ty	bicpt_tz	bicpt2_tx	bicpt2_ty	bicpt2_tz	ptpt_tx	ptpt_ty	ptpt_tz	FCUpt_tx	FCUpt_ty	FCUpt_tz	EDCpt_tx	EDCpt_ty	EDCpt_tz	APLpt_tx	APLpt_ty	APLpt_tz	FPLpt_tx	FPLpt_ty	FPLpt_tz	FPLpt2_tx	FPLpt2_ty	FPLpt2_tz	PEC1pt2_tx	PEC1pt2_ty	PEC1pt2_tz	PEC1pt3_tx	PEC1pt3_ty	PEC1pt3_tz	PEC2pt2_tx	PEC2pt2_ty	PEC2pt2_tz	PEC2pt3_tx	PEC2pt3_ty	PEC2pt3_tz	PEC3pt2_tx	PEC3pt2_ty	PEC3pt2_tz	PEC3pt3_tx	PEC3pt3_ty	PEC3pt3_tz	DELT2pt2a_tx	DELT2pt2a_ty	DELT2pt2a_tz	DELT2pt2_tx	DELT2pt2_ty	DELT2pt2_tz	LAT1pt2_tx	LAT1pt2_ty	LAT1pt2_tz	LAT1pt3_tx	LAT1pt3_ty	LAT1pt3_tz	LAT2pt2_tx	LAT2pt2_ty	LAT2pt2_tz	LAT2pt3_tx	LAT2pt3_ty	LAT2pt3_tz	LAT3pt2_tx	LAT3pt2_ty	LAT3pt2_tz	LAT3pt3_tx	LAT3pt3_ty	LAT3pt3_tz
      0.00000000	     -0.30577333	      0.12951115	     -0.12951115	      0.30577333	     -0.06191288	      0.50035811	      0.22490753	     -0.22490753	     -0.50035811	      0.06191288	    102.66801361	     72.39455279	     -1.79189487	    -43.65147076	     32.99630456	     84.15978944	      0.34537481	     -0.52036276	      0.37108770	     -0.26018138	     37.14800024	    -15.48487824	    -12.31013783	      2.15933112	     76.83960933	     13.84391907	     80.47599809	     85.89725580	     82.75811102	      4.38454457	     79.27811008	     63.34630031	     81.04895302	    -12.66936585	     95.66785041	     42.77107521	     72.96035338	    -14.30413840	     82.22254812	      4.87368379	      0.00099142	     -0.03138188	     -0.00490916	      0.01442625	     -0.01916361	     -0.00138880	      0.00133154	     -0.06892096	     -0.00682952	      0.01252713	     -0.18229957	      0.00003439	     -0.01009915	      0.00347755	     -0.00069905	      0.00030564	      0.00012226	      0.00061128	      0.00039122	      0.00117366	      0.00066018	     -0.00001265	     -0.00016205	     -0.00019446	      0.00237293	      0.00832538	      0.00579157	     -0.00776231	      0.01874216	     -0.01777690	      0.00237293	      0.00832538	      0.00579157	      0.00052285	      0.01737471	     -0.00912977	      0.00380252	      0.00462964	      0.01560130	      0.00000000	      0.00700452	      0.00000000	     -0.00679705	     -0.03141122	     -0.00577083	      0.02368335	     -0.00124496	     -0.01512466	     -0.00084460	      0.01415717	     -0.00579157	      0.00233272	      0.02043137	     -0.01689208	     -0.00567091	      0.01226687	     -0.00518828	     -0.01182445	      0.02590118	     -0.02899806	     -0.02220101	      0.01371476	     -0.00695793	     -0.01472024	      0.02992311	     -0.03623753
      0.03333333	     -0.30582321	      0.12953228	     -0.12953228	      0.30582321	     -0.06192298	      0.50043973	      0.22494422	     -0.22494422	     -0.50043973	      0.06192298	    103.00175734	     72.40636284	     -1.79771980	    -44.43278169	     32.66412906	     84.24789582	      0.33299741	     -0.55656172	      0.36116298	     -0.27828086	     36.28336855	    -16.00168227	    -12.37079565	      1.61795206	     77.60736731	     13.80051656	     78.76969983	     84.63503273	     83.18166945	      4.38243032	     79.69273543	     61.25394782	     81.70778138	    -12.72514003	     94.18010784	     42.54893443	     73.24800397	    -14.28241062	     83.00912380	      4.92294169	      0.00098043	     -0.03134381	     -0.00490303	      0.01441752	     -0.01907337	     -0.00137394	      0.00132503	     -0.06892517	     -0.00683662	      0.01253720	     -0.18229663	      0.00003669	     -0.01010972	      0.00348234	     -0.00070179	      0.00031004	      0.00012402	      0.00062008	      0.00039685	      0.00119055	      0.00066968	     -0.00001283	     -0.00017571	     -0.00021085	      0.00237332	      0.00832674	      0.00579251	     -0.00776358	      0.01874522	     -0.01777980	      0.00237332	      0.00832674	      0.00579251	      0.00052294	      0.01737754	     -0.00913125	      0.00380299	      0.00463039	      0.01560250	      0.00000000	      0.00700682	      0.00000000	     -0.00679816	     -0.03141634	     -0.00577274	      0.02388306	     -0.00127391	     -0.01561040	     -0.00084474	      0.01415948	     -0.00579251	      0.00233310	      0.02043470	     -0.01689483	     -0.00567184	      0.01226887	     -0.00518913	     -0.01182638	      0.02590541	     -0.02900280	     -0.02220464	      0.01371699	     -0.00695906	     -0.01472264	      0.02992799	     -0.03624344
      0.06666667	     -0.30610464	      0.12965148	     -0.12965148	      0.30610464	     -0.06197996	      0.50090026	      0.22515122	     -0.22515122	     -0.50090026	      0.06197996	    103.09104099	     72.47299418	     -1.79927809	    -44.46455281	     32.48175192	     84.23035245	      0.33289601	     -0.55591063	      0.36108041	     -0.27795531	     36.15524825	    -16.05129854	    -12.43559846	      1.59750216	     77.59184599	     13.78678223	     78.74542332	     84.62475701	     83.19677251	      4.39051443	     79.69803713	     61.24988834	     81.70370637	    -12.72135753	     94.13599626	     42.54090414	     73.26238991	    -14.26237966	     83.04403454	      4.92952396	      0.00097440	     -0.03132291	     -0.00489966	      0.01441925	     -0.01902383	     -0.00137689	      0.00132633	     -0.06892433	     -0.00683521	      0.01253519	     -0.18229722	      0.00003623	     -0.01010762	      0.00348139	     -0.00070124	      0.00030997	      0.00012399	      0.00061995	      0.00039676	      0.00119029	      0.00066954	     -0.00001285	     -0.00017768	     -0.00021321	      0.00237551	      0.00833440	      0.00579784	     -0.00777072	      0.01876247	     -0.01779616	      0.00237551	      0.00833440	      0.00579784	      0.00052342	      0.01739353	     -0.00913966	      0.00380560	      0.00463465	      0.01560928	      0.00000000	      0.00701979	      0.00000000	     -0.00680441	     -0.03144525	     -0.00578352	      0.02389090	     -0.00127509	     -0.01563030	     -0.00084552	      0.01417251	     -0.00579784	      0.00233524	      0.02045351	     -0.01691038	     -0.00567706	      0.01228016	     -0.00519390	     -0.01183727	      0.02592925	     -0.02902948	     -0.02222507	      0.01372962	     -0.00696547	     -0.01473619	      0.02995553	     -0.03627679
      0.10000000	     -0.30655632	      0.12984279	     -0.12984279	      0.30655632	     -0.06207142	      0.50163937	      0.22548344	     -0.22548344	     -0.50163937	      0.06207142	    102.99710077	     72.57993260	     -1.79763853	    -43.85509877	     32.26591660	     82.74257033	      0.33646537	     -0.54889691	      0.36396858	     -0.27444845	     34.85813886	    -15.77724989	    -12.27253066	      0.91724915	     78.15181548	     13.72423693	     76.64299869	     83.39814864	     83.26851718	      4.25627319	     80.39969644	     59.61612101	     82.00847294	    -12.74263696	     93.04217429	     42.42130073	     72.82054823	    -14.20889777	     94.44959125	      5.38618500	      0.00096726	     -0.03129817	     -0.00489568	      0.01456450	     -0.01896519	     -0.00162644	      0.00143626	     -0.06885325	     -0.00671536	      0.01236544	     -0.18234654	     -0.00000193	     -0.00992909	      0.00340089	     -0.00065549	      0.00030928	      0.00012371	      0.00061857	      0.00039588	      0.00118765	      0.00066805	     -0.00001269	     -0.00019640	     -0.00023568	      0.00237901	      0.00834670	      0.00580640	     -0.00778219	      0.01879015	     -0.01782242	      0.00237901	      0.00834670	      0.00580640	      0.00052419	      0.01741920	     -0.00915314	      0.00380979	      0.00464149	      0.01562011	      0.00000000	      0.00704065	      0.00000000	     -0.00681445	     -0.03149165	     -0.00580086	      0.02373618	     -0.00125250	     -0.01525084	     -0.00084677	      0.01419342	     -0.00580640	      0.00233869	      0.02048369	     -0.01693533	     -0.00568543	      0.01229828	     -0.00520157	     -0.01185473	      0.02596751	     -0.02907232	     -0.02225786	      0.01374988	     -0.00697574	     -0.01475793	      0.02999973	     -0.03633032
